<?xml version="1.0" standalone="no"?>
<!DOCTYPE svg PUBLIC "-//W3C//DTD SVG 20010904//EN"
 "http://www.w3.org/TR/2001/REC-SVG-20010904/DTD/svg10.dtd">
<svg version="1.0" xmlns="http://www.w3.org/2000/svg"
 width="755.000000pt" height="330.000000pt" viewBox="0 0 755.000000 330.000000"
 preserveAspectRatio="xMidYMid meet">

<g transform="translate(0.000000,330.000000) scale(0.100000,-0.100000)"
fill="#000000" stroke="none">
<path d="M1500 2263 c121 -110 246 -215 267 -225 18 -9 27 -8 40 4 10 8 72 60
138 116 66 55 130 111 143 124 l23 25 -88 -13 c-138 -21 -383 -15 -543 12
l-35 6 55 -49z"/>
<path d="M1013 2288 c3 -10 33 -57 65 -105 32 -49 128 -196 212 -328 85 -132
222 -346 305 -475 83 -129 157 -245 164 -257 6 -13 16 -23 20 -23 8 0 227 333
408 620 29 47 123 192 208 324 85 131 155 242 155 247 0 5 -100 -78 -222 -184
-395 -343 -542 -467 -550 -465 -4 2 -125 104 -268 228 -144 124 -287 248 -319
275 -32 28 -87 75 -122 105 -34 30 -60 47 -56 38z"/>
<path d="M5091 2285 c-123 -35 -214 -111 -248 -208 -16 -46 -18 -89 -18 -373
l0 -321 35 -68 c42 -82 97 -124 202 -156 130 -40 251 -16 332 66 20 19 37 35
39 35 3 0 7 -19 10 -41 7 -52 24 -69 73 -76 30 -4 45 0 67 17 l27 21 0 204 c0
198 -7 250 -33 267 -7 4 -76 8 -154 8 -134 0 -143 -1 -163 -22 -29 -31 -24
-85 10 -110 14 -10 44 -19 67 -20 63 -2 66 -8 37 -66 -30 -61 -70 -97 -124
-113 -33 -10 -44 -9 -83 10 -77 37 -78 44 -75 392 l3 301 33 29 c57 51 147 34
183 -34 7 -11 15 -52 19 -91 9 -78 18 -89 85 -107 50 -14 122 -5 155 20 23 17
25 24 25 102 -1 70 -6 94 -30 147 -35 78 -104 142 -183 173 -75 28 -215 35
-291 14z"/>
<path d="M3070 2279 c-40 -14 -64 -63 -56 -112 4 -23 54 -224 112 -447 58
-223 110 -421 115 -440 14 -55 47 -100 84 -116 50 -21 133 -18 172 6 56 34 59
43 153 405 23 88 66 254 96 369 60 232 64 271 33 305 -48 51 -115 55 -164 9
-40 -37 -49 -69 -109 -356 -67 -322 -82 -377 -98 -380 -12 -2 -19 10 -27 50
-71 341 -124 582 -137 620 -27 83 -94 117 -174 87z"/>
<path d="M4143 2270 c-18 -10 -39 -30 -48 -43 -8 -13 -59 -165 -111 -338 l-96
-314 -5 -153 c-6 -176 -1 -215 32 -248 34 -34 112 -34 152 0 27 23 28 29 33
138 l5 113 168 3 167 2 1 -92 c0 -147 25 -188 111 -188 56 0 87 18 99 59 7 23
9 101 6 206 l-4 170 -62 205 c-35 113 -69 228 -77 257 -58 218 -84 243 -246
243 -75 0 -99 -4 -125 -20z m192 -365 c26 -93 53 -191 60 -217 l14 -48 -135 0
c-73 0 -134 2 -134 5 0 14 114 412 122 429 6 10 14 14 18 10 5 -5 29 -85 55
-179z"/>
<path d="M5753 2275 c-40 -17 -53 -42 -53 -98 0 -38 5 -49 31 -71 37 -32 52
-35 154 -38 l80 -3 5 -425 c3 -234 9 -433 14 -443 19 -40 110 -60 170 -37 50
19 51 25 56 480 l5 425 95 5 c98 5 109 9 148 43 16 15 22 32 22 64 0 109 -15
113 -392 113 -235 -1 -310 -4 -335 -15z"/>
</g>
</svg>
